<?xml version="1.0" standalone="no"?>
<!DOCTYPE svg PUBLIC "-//W3C//DTD SVG 20010904//EN"
 "http://www.w3.org/TR/2001/REC-SVG-20010904/DTD/svg10.dtd">
<svg version="1.0" xmlns="http://www.w3.org/2000/svg"
 width="1280.000000pt" height="1049.000000pt" viewBox="0 0 1280.000000 1049.000000"
 preserveAspectRatio="xMidYMid meet">
<metadata>
Created by potrace 1.15, written by Peter Selinger 2001-2017
</metadata>
<g transform="translate(0.000000,1049.000000) scale(0.100000,-0.100000)"
fill="#000000" stroke="none">
<path d="M4735 10455 c-205 -63 -398 -153 -692 -321 -268 -154 -546 -341 -755
-509 -72 -58 -81 -63 -155 -74 -221 -35 -598 -148 -818 -246 -50 -22 -50 -22
-124 -173 l-74 -152 -147 0 c-236 0 -411 -40 -615 -139 -159 -78 -273 -161
-398 -291 -166 -171 -282 -364 -343 -565 -36 -121 -45 -321 -20 -446 38 -187
122 -382 317 -731 62 -109 125 -232 141 -271 70 -171 88 -353 46 -464 -43
-118 -190 -224 -408 -297 -189 -62 -369 -68 -598 -19 -40 8 -76 13 -79 10 -10
-10 66 -104 140 -173 280 -261 676 -387 1162 -371 228 8 396 43 627 132 14 5
18 -2 23 -42 11 -82 45 -211 75 -283 85 -207 231 -321 479 -375 63 -14 121
-25 129 -25 9 0 -7 23 -37 55 -29 30 -64 81 -78 112 -26 60 -82 213 -77 213 1
0 27 -37 58 -83 138 -209 306 -311 571 -347 179 -24 370 -61 413 -80 37 -17
43 -17 38 -4 -3 9 -6 17 -6 20 0 9 -61 34 -106 44 -63 14 -135 62 -231 153
-267 254 -335 572 -232 1080 26 127 109 433 125 459 3 5 36 -22 74 -60 222
-225 582 -347 1086 -367 l161 -7 32 -52 c38 -63 38 -74 6 -82 -37 -9 -91 3
-176 42 -102 46 -157 46 -194 3 -61 -74 -101 -195 -114 -354 -22 -256 50 -573
167 -731 25 -34 102 -96 133 -106 17 -6 -21 -153 -61 -235 -70 -142 -189 -244
-427 -366 -60 -31 -128 -70 -153 -89 l-45 -33 80 -6 c109 -8 195 -32 290 -80
123 -61 119 -57 95 -118 -24 -61 -78 -132 -147 -193 -63 -56 -151 -85 -211
-68 -87 23 -123 77 -131 195 l-6 80 -33 3 c-49 5 -86 -28 -131 -118 -114 -227
-106 -508 18 -640 53 -56 72 -60 130 -30 45 23 75 65 91 133 l12 47 28 -42
c15 -24 44 -60 65 -80 211 -208 594 -19 700 346 l17 58 31 -31 31 -31 0 -207
c-1 -242 -16 -378 -75 -668 -70 -350 -229 -954 -261 -992 -8 -10 -210 -13
-979 -13 l-969 0 0 -675 0 -675 5205 0 5205 0 0 675 0 675 -435 0 -436 0 -19
44 c-31 74 -63 79 -185 29 -59 -25 -66 -25 -340 -27 l-281 -2 -27 44 c-67 107
-180 421 -217 600 -22 110 -26 202 -9 202 21 0 175 -41 281 -76 59 -19 110
-34 114 -34 3 0 -10 28 -29 63 -92 165 -133 456 -86 619 7 23 14 45 15 47 2 2
31 -19 66 -45 89 -69 229 -138 321 -158 96 -22 97 -21 156 97 66 131 84 215
85 397 0 166 -13 255 -59 391 -42 122 -185 379 -219 392 -8 3 -73 9 -144 13
l-130 7 -25 46 c-14 25 -30 63 -35 84 l-11 38 46 27 c165 98 380 286 510 447
155 192 318 478 389 681 l28 81 67 11 c394 68 641 484 509 860 -11 31 -21 62
-23 67 -1 6 51 9 147 6 l149 -4 -7 89 c-33 413 -151 853 -322 1196 l-44 88
-128 64 c-421 211 -901 336 -1552 403 -210 21 -904 25 -1145 5 -265 -21 -278
-24 -415 -103 -410 -235 -734 -535 -1002 -928 -80 -117 -87 -139 -114 -345
-20 -159 -15 -563 10 -746 25 -179 68 -397 102 -511 3 -11 -3 -18 -18 -21 -13
-3 -31 -9 -40 -13 -15 -6 -18 -2 -18 22 0 16 -5 34 -12 41 -16 16 -87 15 -118
-3 -38 -22 -40 -19 -25 26 32 91 11 169 -46 169 -59 0 -160 -126 -175 -218 -4
-23 -9 -42 -13 -41 -3 0 -23 23 -44 51 -49 63 -107 92 -159 78 -22 -7 -39 -19
-46 -36 -15 -32 -15 -109 -1 -136 10 -18 8 -24 -8 -38 -11 -9 -28 -31 -37 -48
-16 -32 -36 -35 -36 -7 0 7 -15 30 -34 49 -39 42 -73 46 -103 14 -48 -53 -59
-113 -38 -203 8 -37 13 -71 9 -76 -3 -5 -17 -9 -32 -9 -52 0 -100 -21 -141
-60 -32 -32 -41 -47 -41 -74 0 -19 5 -38 10 -41 19 -12 10 -25 -17 -25 -16 0
-43 -9 -60 -20 -29 -17 -33 -25 -33 -60 0 -55 23 -86 87 -116 l54 -26 -32 -36
c-42 -48 -59 -91 -59 -151 0 -37 5 -53 18 -61 13 -9 3 -10 -45 -7 -42 4 -78
14 -109 31 -26 14 -49 26 -51 26 -3 0 8 -15 25 -34 17 -19 33 -43 36 -54 4
-10 20 -28 36 -41 57 -41 108 -54 225 -55 133 -2 143 -6 115 -50 -21 -35 -26
-71 -11 -81 6 -3 25 8 44 25 40 35 48 36 70 12 9 -10 82 -63 162 -118 256
-174 448 -308 530 -369 45 -33 129 -91 187 -130 l107 -70 -5 -36 c-4 -22 -2
-39 5 -43 6 -4 8 -18 5 -31 -7 -29 10 -62 36 -70 15 -5 20 -15 20 -44 0 -56
37 -87 99 -84 44 2 48 0 58 -27 13 -36 51 -52 91 -41 l29 9 6 -143 c8 -167 33
-411 45 -446 9 -23 10 -22 37 20 15 24 32 57 37 72 5 16 12 29 14 29 2 0 24
-20 47 -45 36 -37 50 -45 80 -45 31 0 37 3 37 21 0 27 30 131 41 143 8 9 97
-43 119 -70 7 -7 24 -14 39 -14 29 0 44 25 56 93 l6 38 35 -26 34 -26 -11 28
c-6 15 -36 62 -68 103 -65 84 -222 312 -218 316 1 1 34 -6 72 -17 156 -44 224
-52 445 -53 228 -1 318 8 499 50 57 13 105 23 107 22 1 -2 -11 -50 -27 -108
-42 -150 -85 -368 -111 -568 l-23 -173 -95 8 c-233 20 -480 4 -512 -34 -9 -11
-9 -30 0 -86 27 -156 130 -402 240 -572 48 -75 200 -273 226 -294 9 -8 16 -17
16 -22 0 -5 -1128 -9 -2630 -9 l-2629 0 -58 22 c-76 28 -118 72 -132 139 -9
41 -9 56 1 69 204 276 363 546 492 837 87 196 172 473 184 602 l7 66 38 6 c20
3 39 8 42 11 3 3 17 49 31 104 14 54 36 136 50 181 48 159 67 332 68 608 0
216 -13 461 -30 545 l-4 25 92 0 c78 0 101 4 141 24 66 32 90 71 83 136 -6 69
-32 139 -74 205 -51 79 -93 160 -102 198 -7 30 -5 34 34 61 22 16 78 67 123
114 73 76 84 92 102 155 26 86 26 95 0 148 -11 24 -24 70 -29 103 -10 68 -15
81 -36 81 -8 0 -14 5 -14 11 0 19 -78 1 -141 -33 -66 -34 -168 -123 -210 -182
-18 -24 -30 -33 -33 -25 -40 145 -69 196 -126 228 -66 37 -99 29 -174 -39 -37
-33 -74 -60 -84 -60 -12 0 -29 23 -52 68 -19 37 -36 70 -38 73 -1 3 35 11 80
18 339 50 723 180 963 325 33 20 63 32 67 28 8 -8 -8 -218 -18 -234 -3 -4 37
-8 88 -8 97 0 196 -16 312 -49 38 -11 72 -18 77 -16 21 14 76 154 104 269 38
155 38 397 0 564 -15 64 -15 76 -2 95 21 33 97 208 97 224 0 8 -22 76 -50 151
-66 182 -86 250 -121 405 l-29 129 32 92 c34 99 52 266 29 266 -6 0 -13 -6
-15 -12 -2 -7 -17 -53 -32 -103 l-27 -90 -8 40 c-10 54 -11 375 -1 375 21 0
219 -72 295 -108 279 -131 557 -354 714 -573 l58 -81 3 118 c5 215 -42 520
-115 749 -129 405 -369 765 -734 1101 -314 289 -578 462 -1159 757 -162 83
-324 165 -360 184 -36 18 -74 33 -85 32 -11 0 -69 -15 -130 -34z m-2727 -2831
c55 -259 162 -473 324 -651 l67 -74 -61 -102 c-34 -56 -64 -104 -66 -107 -6
-8 -78 77 -126 149 -100 153 -179 348 -212 531 -14 71 -18 149 -18 310 -1 213
6 289 42 455 l17 80 6 -245 c5 -196 10 -265 27 -346z m6699 -1774 c15 -56 18
-111 19 -410 2 -375 11 -470 59 -609 132 -387 535 -726 970 -816 106 -22 369
-45 510 -45 106 0 307 20 358 36 24 8 22 1 -18 -55 -34 -47 -56 -60 -100 -61
-49 0 -95 -22 -110 -50 -32 -61 -255 -166 -582 -274 -316 -104 -510 -145 -724
-153 l-156 -6 -6 64 c-9 86 -42 181 -72 209 -14 13 -25 31 -25 39 0 30 -60
251 -124 458 -75 241 -183 542 -250 692 -25 58 -44 107 -42 109 3 2 11 -9 19
-25 9 -15 33 -51 55 -80 l39 -52 -1 242 c-1 212 2 257 22 367 44 236 117 510
132 494 5 -5 17 -38 27 -74z m-465 -502 c10 -29 16 -53 15 -54 -3 -3 -58 -6
-78 -5 -13 1 -11 10 10 56 14 30 28 55 31 55 3 0 13 -24 22 -52z m96 -225 l22
-48 -35 39 c-19 21 -32 43 -29 47 10 17 20 8 42 -38z m-1271 -679 c-3 -3 -12
-4 -19 -1 -8 3 -5 6 6 6 11 1 17 -2 13 -5z m2906 -2438 c116 -28 259 -72 298
-92 25 -13 26 -17 32 -131 3 -65 18 -171 32 -238 14 -66 28 -135 32 -152 l6
-33 -201 0 -201 0 -15 55 c-90 307 -112 427 -107 573 0 23 6 42 11 42 6 0 56
-11 113 -24z"/>
<path d="M8800 10144 c-322 -62 -783 -296 -1205 -612 -280 -210 -508 -432
-443 -432 19 0 85 42 431 274 368 246 730 467 961 587 245 127 354 160 521
161 79 0 94 2 70 10 -32 11 -293 20 -335 12z"/>
<path d="M9418 9413 c7 -3 16 -2 19 1 4 3 -2 6 -13 5 -11 0 -14 -3 -6 -6z"/>
<path d="M9225 9384 c-352 -66 -959 -234 -1361 -377 -309 -111 -399 -154 -399
-192 0 -31 31 -24 286 65 629 221 1264 427 1509 491 167 43 153 48 -35 13z"/>
<path d="M7310 6592 c-33 -16 -50 -45 -74 -125 -5 -16 -7 -16 -38 3 -55 33
-117 20 -144 -31 -19 -39 -17 -126 5 -174 25 -57 129 -149 188 -169 82 -27
126 -29 187 -12 94 28 99 37 93 196 -3 107 -9 146 -26 188 -28 70 -57 108 -97
127 -41 19 -51 19 -94 -3z"/>
<path d="M6920 5703 c-31 -11 -70 -58 -76 -90 -6 -31 -9 -33 -44 -33 -104 0
-105 -147 -2 -253 50 -53 101 -77 160 -77 43 0 52 4 86 39 l37 38 2 110 c1
106 0 113 -32 177 -39 80 -80 108 -131 89z"/>
<path d="M6372 5115 c-32 -27 -91 -141 -99 -192 -7 -39 -13 -41 -39 -12 -46
52 -155 75 -213 44 -63 -32 -81 -160 -38 -265 84 -204 271 -340 467 -340 32 0
119 36 143 59 12 12 37 178 37 246 0 128 -43 317 -93 408 -24 43 -72 77 -110
77 -14 0 -39 -11 -55 -25z"/>
</g>
</svg>
